<svg width="131" height="41" viewBox="0 0 131 41" fill="none" xmlns="http://www.w3.org/2000/svg">
<rect x="0.5" y="0.5" width="130" height="40" rx="6" fill="#18A0FB"/>
<path d="M24.3106 25.5V15H25.8106V24.195H31.4956V25.5H24.3106ZM36.2194 25.59C35.3694 25.59 34.6194 25.415 33.9694 25.065C33.3294 24.715 32.8294 24.235 32.4694 23.625C32.1194 23.015 31.9444 22.315 31.9444 21.525C31.9444 20.735 32.1144 20.035 32.4544 19.425C32.8044 18.815 33.2794 18.34 33.8794 18C34.4894 17.65 35.1744 17.475 35.9344 17.475C36.7044 17.475 37.3844 17.645 37.9744 17.985C38.5644 18.325 39.0244 18.805 39.3544 19.425C39.6944 20.035 39.8644 20.75 39.8644 21.57C39.8644 21.63 39.8594 21.7 39.8494 21.78C39.8494 21.86 39.8444 21.935 39.8344 22.005H33.0694V20.97H39.0844L38.4994 21.33C38.5094 20.82 38.4044 20.365 38.1844 19.965C37.9644 19.565 37.6594 19.255 37.2694 19.035C36.8894 18.805 36.4444 18.69 35.9344 18.69C35.4344 18.69 34.9894 18.805 34.5994 19.035C34.2094 19.255 33.9044 19.57 33.6844 19.98C33.4644 20.38 33.3544 20.84 33.3544 21.36V21.6C33.3544 22.13 33.4744 22.605 33.7144 23.025C33.9644 23.435 34.3094 23.755 34.7494 23.985C35.1894 24.215 35.6944 24.33 36.2644 24.33C36.7344 24.33 37.1594 24.25 37.5394 24.09C37.9294 23.93 38.2694 23.69 38.5594 23.37L39.3544 24.3C38.9944 24.72 38.5444 25.04 38.0044 25.26C37.4744 25.48 36.8794 25.59 36.2194 25.59ZM46.3542 25.5V23.82L46.2792 23.505V20.64C46.2792 20.03 46.0992 19.56 45.7392 19.23C45.3892 18.89 44.8592 18.72 44.1492 18.72C43.6792 18.72 43.2192 18.8 42.7692 18.96C42.3192 19.11 41.9392 19.315 41.6292 19.575L41.0292 18.495C41.4392 18.165 41.9292 17.915 42.4992 17.745C43.0792 17.565 43.6842 17.475 44.3142 17.475C45.4042 17.475 46.2442 17.74 46.8342 18.27C47.4242 18.8 47.7192 19.61 47.7192 20.7V25.5H46.3542ZM43.7442 25.59C43.1542 25.59 42.6342 25.49 42.1842 25.29C41.7442 25.09 41.4042 24.815 41.1642 24.465C40.9242 24.105 40.8042 23.7 40.8042 23.25C40.8042 22.82 40.9042 22.43 41.1042 22.08C41.3142 21.73 41.6492 21.45 42.1092 21.24C42.5792 21.03 43.2092 20.925 43.9992 20.925H46.5192V21.96H44.0592C43.3392 21.96 42.8542 22.08 42.6042 22.32C42.3542 22.56 42.2292 22.85 42.2292 23.19C42.2292 23.58 42.3842 23.895 42.6942 24.135C43.0042 24.365 43.4342 24.48 43.9842 24.48C44.5242 24.48 44.9942 24.36 45.3942 24.12C45.8042 23.88 46.0992 23.53 46.2792 23.07L46.5642 24.06C46.3742 24.53 46.0392 24.905 45.5592 25.185C45.0792 25.455 44.4742 25.59 43.7442 25.59ZM50.159 25.5V17.55H51.539V19.71L51.404 19.17C51.624 18.62 51.994 18.2 52.514 17.91C53.034 17.62 53.674 17.475 54.434 17.475V18.87C54.374 18.86 54.314 18.855 54.254 18.855C54.204 18.855 54.154 18.855 54.104 18.855C53.334 18.855 52.724 19.085 52.274 19.545C51.824 20.005 51.599 20.67 51.599 21.54V25.5H50.159ZM60.2289 17.475C60.8789 17.475 61.4489 17.6 61.9389 17.85C62.4389 18.1 62.8289 18.48 63.1089 18.99C63.3889 19.5 63.5289 20.145 63.5289 20.925V25.5H62.0889V21.09C62.0889 20.32 61.8989 19.74 61.5189 19.35C61.1489 18.96 60.6239 18.765 59.9439 18.765C59.4339 18.765 58.9889 18.865 58.6089 19.065C58.2289 19.265 57.9339 19.56 57.7239 19.95C57.5239 20.34 57.4239 20.825 57.4239 21.405V25.5H55.9839V17.55H57.3639V19.695L57.1389 19.125C57.3989 18.605 57.7989 18.2 58.3389 17.91C58.8789 17.62 59.5089 17.475 60.2289 17.475ZM79.7171 17.475C80.3571 17.475 80.9221 17.6 81.4121 17.85C81.9021 18.1 82.2821 18.48 82.5521 18.99C82.8321 19.5 82.9721 20.145 82.9721 20.925V25.5H81.5321V21.09C81.5321 20.32 81.3521 19.74 80.9921 19.35C80.6321 18.96 80.1271 18.765 79.4771 18.765C78.9971 18.765 78.5771 18.865 78.2171 19.065C77.8571 19.265 77.5771 19.56 77.3771 19.95C77.1871 20.34 77.0921 20.825 77.0921 21.405V25.5H75.6521V21.09C75.6521 20.32 75.4721 19.74 75.1121 19.35C74.7621 18.96 74.2571 18.765 73.5971 18.765C73.1271 18.765 72.7121 18.865 72.3521 19.065C71.9921 19.265 71.7121 19.56 71.5121 19.95C71.3121 20.34 71.2121 20.825 71.2121 21.405V25.5H69.7721V17.55H71.1521V19.665L70.9271 19.125C71.1771 18.605 71.5621 18.2 72.0821 17.91C72.6021 17.62 73.2071 17.475 73.8971 17.475C74.6571 17.475 75.3121 17.665 75.8621 18.045C76.4121 18.415 76.7721 18.98 76.9421 19.74L76.3571 19.5C76.5971 18.89 77.0171 18.4 77.6171 18.03C78.2171 17.66 78.9171 17.475 79.7171 17.475ZM88.8017 25.59C88.0017 25.59 87.2917 25.415 86.6717 25.065C86.0517 24.715 85.5617 24.235 85.2017 23.625C84.8417 23.005 84.6617 22.305 84.6617 21.525C84.6617 20.735 84.8417 20.035 85.2017 19.425C85.5617 18.815 86.0517 18.34 86.6717 18C87.2917 17.65 88.0017 17.475 88.8017 17.475C89.5917 17.475 90.2967 17.65 90.9167 18C91.5467 18.34 92.0367 18.815 92.3867 19.425C92.7467 20.025 92.9267 20.725 92.9267 21.525C92.9267 22.315 92.7467 23.015 92.3867 23.625C92.0367 24.235 91.5467 24.715 90.9167 25.065C90.2967 25.415 89.5917 25.59 88.8017 25.59ZM88.8017 24.33C89.3117 24.33 89.7667 24.215 90.1667 23.985C90.5767 23.755 90.8967 23.43 91.1267 23.01C91.3567 22.58 91.4717 22.085 91.4717 21.525C91.4717 20.955 91.3567 20.465 91.1267 20.055C90.8967 19.635 90.5767 19.31 90.1667 19.08C89.7667 18.85 89.3117 18.735 88.8017 18.735C88.2917 18.735 87.8367 18.85 87.4367 19.08C87.0367 19.31 86.7167 19.635 86.4767 20.055C86.2367 20.465 86.1167 20.955 86.1167 21.525C86.1167 22.085 86.2367 22.58 86.4767 23.01C86.7167 23.43 87.0367 23.755 87.4367 23.985C87.8367 24.215 88.2917 24.33 88.8017 24.33ZM94.6932 25.5V17.55H96.0732V19.71L95.9382 19.17C96.1582 18.62 96.5282 18.2 97.0482 17.91C97.5682 17.62 98.2082 17.475 98.9682 17.475V18.87C98.9082 18.86 98.8482 18.855 98.7882 18.855C98.7382 18.855 98.6882 18.855 98.6382 18.855C97.8682 18.855 97.2582 19.085 96.8082 19.545C96.3582 20.005 96.1332 20.67 96.1332 21.54V25.5H94.6932ZM103.985 25.59C103.135 25.59 102.385 25.415 101.735 25.065C101.095 24.715 100.595 24.235 100.235 23.625C99.8848 23.015 99.7098 22.315 99.7098 21.525C99.7098 20.735 99.8798 20.035 100.22 19.425C100.57 18.815 101.045 18.34 101.645 18C102.255 17.65 102.94 17.475 103.7 17.475C104.47 17.475 105.15 17.645 105.74 17.985C106.33 18.325 106.79 18.805 107.12 19.425C107.46 20.035 107.63 20.75 107.63 21.57C107.63 21.63 107.625 21.7 107.615 21.78C107.615 21.86 107.61 21.935 107.6 22.005H100.835V20.97H106.85L106.265 21.33C106.275 20.82 106.17 20.365 105.95 19.965C105.73 19.565 105.425 19.255 105.035 19.035C104.655 18.805 104.21 18.69 103.7 18.69C103.2 18.69 102.755 18.805 102.365 19.035C101.975 19.255 101.67 19.57 101.45 19.98C101.23 20.38 101.12 20.84 101.12 21.36V21.6C101.12 22.13 101.24 22.605 101.48 23.025C101.73 23.435 102.075 23.755 102.515 23.985C102.955 24.215 103.46 24.33 104.03 24.33C104.5 24.33 104.925 24.25 105.305 24.09C105.695 23.93 106.035 23.69 106.325 23.37L107.12 24.3C106.76 24.72 106.31 25.04 105.77 25.26C105.24 25.48 104.645 25.59 103.985 25.59Z" fill="white"/>
</svg>
