<svg width="329" height="40" viewBox="0 0 329 40" fill="none" xmlns="http://www.w3.org/2000/svg">
<rect x="0.5" width="328" height="40" rx="6" fill="#18A0FB"/>
<path d="M123.095 25V14.5H124.595V23.695H130.28V25H123.095ZM135.004 25.09C134.154 25.09 133.404 24.915 132.754 24.565C132.114 24.215 131.614 23.735 131.254 23.125C130.904 22.515 130.729 21.815 130.729 21.025C130.729 20.235 130.899 19.535 131.239 18.925C131.589 18.315 132.064 17.84 132.664 17.5C133.274 17.15 133.959 16.975 134.719 16.975C135.489 16.975 136.169 17.145 136.759 17.485C137.349 17.825 137.809 18.305 138.139 18.925C138.479 19.535 138.649 20.25 138.649 21.07C138.649 21.13 138.644 21.2 138.634 21.28C138.634 21.36 138.629 21.435 138.619 21.505H131.854V20.47H137.869L137.284 20.83C137.294 20.32 137.189 19.865 136.969 19.465C136.749 19.065 136.444 18.755 136.054 18.535C135.674 18.305 135.229 18.19 134.719 18.19C134.219 18.19 133.774 18.305 133.384 18.535C132.994 18.755 132.689 19.07 132.469 19.48C132.249 19.88 132.139 20.34 132.139 20.86V21.1C132.139 21.63 132.259 22.105 132.499 22.525C132.749 22.935 133.094 23.255 133.534 23.485C133.974 23.715 134.479 23.83 135.049 23.83C135.519 23.83 135.944 23.75 136.324 23.59C136.714 23.43 137.054 23.19 137.344 22.87L138.139 23.8C137.779 24.22 137.329 24.54 136.789 24.76C136.259 24.98 135.664 25.09 135.004 25.09ZM145.139 25V23.32L145.064 23.005V20.14C145.064 19.53 144.884 19.06 144.524 18.73C144.174 18.39 143.644 18.22 142.934 18.22C142.464 18.22 142.004 18.3 141.554 18.46C141.104 18.61 140.724 18.815 140.414 19.075L139.814 17.995C140.224 17.665 140.714 17.415 141.284 17.245C141.864 17.065 142.469 16.975 143.099 16.975C144.189 16.975 145.029 17.24 145.619 17.77C146.209 18.3 146.504 19.11 146.504 20.2V25H145.139ZM142.529 25.09C141.939 25.09 141.419 24.99 140.969 24.79C140.529 24.59 140.189 24.315 139.949 23.965C139.709 23.605 139.589 23.2 139.589 22.75C139.589 22.32 139.689 21.93 139.889 21.58C140.099 21.23 140.434 20.95 140.894 20.74C141.364 20.53 141.994 20.425 142.784 20.425H145.304V21.46H142.844C142.124 21.46 141.639 21.58 141.389 21.82C141.139 22.06 141.014 22.35 141.014 22.69C141.014 23.08 141.169 23.395 141.479 23.635C141.789 23.865 142.219 23.98 142.769 23.98C143.309 23.98 143.779 23.86 144.179 23.62C144.589 23.38 144.884 23.03 145.064 22.57L145.349 23.56C145.159 24.03 144.824 24.405 144.344 24.685C143.864 24.955 143.259 25.09 142.529 25.09ZM148.944 25V17.05H150.324V19.21L150.189 18.67C150.409 18.12 150.779 17.7 151.299 17.41C151.819 17.12 152.459 16.975 153.219 16.975V18.37C153.159 18.36 153.099 18.355 153.039 18.355C152.989 18.355 152.939 18.355 152.889 18.355C152.119 18.355 151.509 18.585 151.059 19.045C150.609 19.505 150.384 20.17 150.384 21.04V25H148.944ZM159.014 16.975C159.664 16.975 160.234 17.1 160.724 17.35C161.224 17.6 161.614 17.98 161.894 18.49C162.174 19 162.314 19.645 162.314 20.425V25H160.874V20.59C160.874 19.82 160.684 19.24 160.304 18.85C159.934 18.46 159.409 18.265 158.729 18.265C158.219 18.265 157.774 18.365 157.394 18.565C157.014 18.765 156.719 19.06 156.509 19.45C156.309 19.84 156.209 20.325 156.209 20.905V25H154.769V17.05H156.149V19.195L155.924 18.625C156.184 18.105 156.584 17.7 157.124 17.41C157.664 17.12 158.294 16.975 159.014 16.975ZM178.502 16.975C179.142 16.975 179.707 17.1 180.197 17.35C180.687 17.6 181.067 17.98 181.337 18.49C181.617 19 181.757 19.645 181.757 20.425V25H180.317V20.59C180.317 19.82 180.137 19.24 179.777 18.85C179.417 18.46 178.912 18.265 178.262 18.265C177.782 18.265 177.362 18.365 177.002 18.565C176.642 18.765 176.362 19.06 176.162 19.45C175.972 19.84 175.877 20.325 175.877 20.905V25H174.437V20.59C174.437 19.82 174.257 19.24 173.897 18.85C173.547 18.46 173.042 18.265 172.382 18.265C171.912 18.265 171.497 18.365 171.137 18.565C170.777 18.765 170.497 19.06 170.297 19.45C170.097 19.84 169.997 20.325 169.997 20.905V25H168.557V17.05H169.937V19.165L169.712 18.625C169.962 18.105 170.347 17.7 170.867 17.41C171.387 17.12 171.992 16.975 172.682 16.975C173.442 16.975 174.097 17.165 174.647 17.545C175.197 17.915 175.557 18.48 175.727 19.24L175.142 19C175.382 18.39 175.802 17.9 176.402 17.53C177.002 17.16 177.702 16.975 178.502 16.975ZM187.586 25.09C186.786 25.09 186.076 24.915 185.456 24.565C184.836 24.215 184.346 23.735 183.986 23.125C183.626 22.505 183.446 21.805 183.446 21.025C183.446 20.235 183.626 19.535 183.986 18.925C184.346 18.315 184.836 17.84 185.456 17.5C186.076 17.15 186.786 16.975 187.586 16.975C188.376 16.975 189.081 17.15 189.701 17.5C190.331 17.84 190.821 18.315 191.171 18.925C191.531 19.525 191.711 20.225 191.711 21.025C191.711 21.815 191.531 22.515 191.171 23.125C190.821 23.735 190.331 24.215 189.701 24.565C189.081 24.915 188.376 25.09 187.586 25.09ZM187.586 23.83C188.096 23.83 188.551 23.715 188.951 23.485C189.361 23.255 189.681 22.93 189.911 22.51C190.141 22.08 190.256 21.585 190.256 21.025C190.256 20.455 190.141 19.965 189.911 19.555C189.681 19.135 189.361 18.81 188.951 18.58C188.551 18.35 188.096 18.235 187.586 18.235C187.076 18.235 186.621 18.35 186.221 18.58C185.821 18.81 185.501 19.135 185.261 19.555C185.021 19.965 184.901 20.455 184.901 21.025C184.901 21.585 185.021 22.08 185.261 22.51C185.501 22.93 185.821 23.255 186.221 23.485C186.621 23.715 187.076 23.83 187.586 23.83ZM193.478 25V17.05H194.858V19.21L194.723 18.67C194.943 18.12 195.313 17.7 195.833 17.41C196.353 17.12 196.993 16.975 197.753 16.975V18.37C197.693 18.36 197.633 18.355 197.573 18.355C197.523 18.355 197.473 18.355 197.423 18.355C196.653 18.355 196.043 18.585 195.593 19.045C195.143 19.505 194.918 20.17 194.918 21.04V25H193.478ZM202.769 25.09C201.919 25.09 201.169 24.915 200.519 24.565C199.879 24.215 199.379 23.735 199.019 23.125C198.669 22.515 198.494 21.815 198.494 21.025C198.494 20.235 198.664 19.535 199.004 18.925C199.354 18.315 199.829 17.84 200.429 17.5C201.039 17.15 201.724 16.975 202.484 16.975C203.254 16.975 203.934 17.145 204.524 17.485C205.114 17.825 205.574 18.305 205.904 18.925C206.244 19.535 206.414 20.25 206.414 21.07C206.414 21.13 206.409 21.2 206.399 21.28C206.399 21.36 206.394 21.435 206.384 21.505H199.619V20.47H205.634L205.049 20.83C205.059 20.32 204.954 19.865 204.734 19.465C204.514 19.065 204.209 18.755 203.819 18.535C203.439 18.305 202.994 18.19 202.484 18.19C201.984 18.19 201.539 18.305 201.149 18.535C200.759 18.755 200.454 19.07 200.234 19.48C200.014 19.88 199.904 20.34 199.904 20.86V21.1C199.904 21.63 200.024 22.105 200.264 22.525C200.514 22.935 200.859 23.255 201.299 23.485C201.739 23.715 202.244 23.83 202.814 23.83C203.284 23.83 203.709 23.75 204.089 23.59C204.479 23.43 204.819 23.19 205.109 22.87L205.904 23.8C205.544 24.22 205.094 24.54 204.554 24.76C204.024 24.98 203.429 25.09 202.769 25.09Z" fill="white"/>
</svg>
