<svg width="137" height="52" viewBox="0 0 137 52" fill="none" xmlns="http://www.w3.org/2000/svg">
<path d="M10 26C10 23.2386 12.2386 21 15 21H125C127.761 21 130 23.2386 130 26V40C130 42.7614 127.761 45 125 45H15C12.2386 45 10 42.7614 10 40V26Z" fill="#23A6F0"/>
<path d="M36.568 30.09V28.214H41.664V34.598C41.664 35.7647 41.3607 36.6373 40.754 37.216C40.1567 37.7947 39.3867 38.084 38.444 38.084C37.268 38.084 36.2413 37.6313 35.364 36.726L36.498 35.158C37.086 35.7927 37.702 36.11 38.346 36.11C38.654 36.11 38.9153 35.9933 39.13 35.76C39.354 35.5173 39.466 35.158 39.466 34.682V30.09H36.568ZM51.6733 33.058C51.6733 32.1807 51.3933 31.434 50.8333 30.818C50.2733 30.202 49.5826 29.894 48.7613 29.894C47.9493 29.894 47.2633 30.202 46.7033 30.818C46.1433 31.434 45.8633 32.1807 45.8633 33.058C45.8633 33.926 46.1433 34.668 46.7033 35.284C47.2633 35.8907 47.9493 36.194 48.7613 36.194C49.5826 36.194 50.2733 35.8907 50.8333 35.284C51.3933 34.668 51.6733 33.926 51.6733 33.058ZM52.4153 36.656C51.426 37.6173 50.208 38.098 48.7613 38.098C47.3146 38.098 46.0966 37.6173 45.1073 36.656C44.118 35.6853 43.6233 34.4813 43.6233 33.044C43.6233 31.6067 44.118 30.4073 45.1073 29.446C46.0966 28.4753 47.3146 27.99 48.7613 27.99C50.208 27.99 51.426 28.4753 52.4153 29.446C53.4046 30.4073 53.8993 31.6067 53.8993 33.044C53.8993 34.4813 53.4046 35.6853 52.4153 36.656ZM55.9497 28.214H58.1337V38H55.9497V28.214ZM67.5895 28.214H69.7735V38H67.5895L62.9275 31.868V38H60.7435V28.214H62.7875L67.5895 34.514V28.214ZM78.8682 35.48C79.2322 35.928 79.7222 36.152 80.3382 36.152C80.9542 36.152 81.4396 35.928 81.7942 35.48C82.1582 35.0227 82.3402 34.402 82.3402 33.618V28.214H84.5242V33.688C84.5242 35.1067 84.1322 36.1987 83.3482 36.964C82.5642 37.72 81.5609 38.098 80.3382 38.098C79.1156 38.098 78.1076 37.7153 77.3142 36.95C76.5302 36.1847 76.1382 35.0973 76.1382 33.688V28.214H78.3222V33.618C78.3222 34.402 78.5042 35.0227 78.8682 35.48ZM90.1419 29.908C89.7779 29.908 89.4886 29.9967 89.2739 30.174C89.0686 30.342 88.9659 30.5707 88.9659 30.86C88.9659 31.14 89.0919 31.364 89.3439 31.532C89.6052 31.7 90.1979 31.9007 91.1219 32.134C92.0552 32.358 92.7786 32.6987 93.2919 33.156C93.8052 33.6133 94.0619 34.2807 94.0619 35.158C94.0619 36.0353 93.7306 36.7493 93.0679 37.3C92.4146 37.8413 91.5512 38.112 90.4779 38.112C88.9286 38.112 87.5332 37.538 86.2919 36.39L87.5939 34.794C88.6486 35.718 89.6239 36.18 90.5199 36.18C90.9212 36.18 91.2339 36.096 91.4579 35.928C91.6912 35.7507 91.8079 35.5173 91.8079 35.228C91.8079 34.9293 91.6866 34.696 91.4439 34.528C91.2012 34.3507 90.7206 34.1733 90.0019 33.996C88.8632 33.7253 88.0279 33.3753 87.4959 32.946C86.9732 32.5073 86.7119 31.826 86.7119 30.902C86.7119 29.9687 87.0432 29.25 87.7059 28.746C88.3779 28.242 89.2132 27.99 90.2119 27.99C90.8652 27.99 91.5186 28.102 92.1719 28.326C92.8252 28.55 93.3946 28.8673 93.8799 29.278L92.7739 30.874C91.9246 30.23 91.0472 29.908 90.1419 29.908Z" fill="white"/>
<g clip-path="url(#clip0_16_298)">
<path fill-rule="evenodd" clip-rule="evenodd" d="M110 33C110 32.8106 110.079 32.6289 110.22 32.495C110.36 32.3611 110.551 32.2858 110.75 32.2858H119.438L116.218 29.2207C116.077 29.0866 115.998 28.9047 115.998 28.7151C115.998 28.5254 116.077 28.3435 116.218 28.2094C116.359 28.0753 116.55 28 116.749 28C116.948 28 117.139 28.0753 117.28 28.2094L121.78 32.4944C121.85 32.5607 121.905 32.6395 121.943 32.7263C121.981 32.8131 122 32.9061 122 33C122 33.0939 121.981 33.1869 121.943 33.2737C121.905 33.3605 121.85 33.4393 121.78 33.5056L117.28 37.7906C117.139 37.9247 116.948 38 116.749 38C116.55 38 116.359 37.9247 116.218 37.7906C116.077 37.6565 115.998 37.4746 115.998 37.2849C115.998 37.0953 116.077 36.9134 116.218 36.7793L119.438 33.7142H110.75C110.551 33.7142 110.36 33.6389 110.22 33.505C110.079 33.3711 110 33.1894 110 33Z" fill="white"/>
</g>
<defs>
<clipPath id="clip0_16_298">
<rect width="12" height="10" fill="white" transform="translate(110 28)"/>
</clipPath>
</defs>
</svg>
